<svg width="100%" height="100%" viewBox="0 0 170mm 140mm" version="1.1" xmlns="http://www.w3.org/2000/svg">	<rect width="170mm" height="140mm" x="0mm" y="0mm" fill-opacity="0" stroke-width="0.5mm" stroke="black"/>

	<rect width="30mm" height="30mm" x="10mm" y="10mm" fill-opacity="0" stroke-width="0.2mm" stroke="black" stroke-dasharray="1 2"/>
	<rect width="30mm" height="30mm" x="40mm" y="10mm" fill-opacity="0" stroke-width="0.2mm" stroke="black" stroke-dasharray="1 2"/>
	<rect width="30mm" height="30mm" x="70mm" y="10mm" fill-opacity="0" stroke-width="0.2mm" stroke="black" stroke-dasharray="1 2"/>
	<rect width="30mm" height="30mm" x="100mm" y="10mm" fill-opacity="0" stroke-width="0.2mm" stroke="black" stroke-dasharray="1 2"/>
	<rect width="30mm" height="30mm" x="130mm" y="10mm" fill-opacity="0" stroke-width="0.2mm" stroke="black" stroke-dasharray="1 2"/>
	<rect width="30mm" height="30mm" x="10mm" y="40mm" fill-opacity="0" stroke-width="0.2mm" stroke="black" stroke-dasharray="1 2"/>
	<rect width="30mm" height="30mm" x="40mm" y="40mm" fill-opacity="0" stroke-width="0.2mm" stroke="black" stroke-dasharray="1 2"/>
	<rect width="30mm" height="30mm" x="70mm" y="40mm" fill-opacity="0" stroke-width="0.2mm" stroke="black" stroke-dasharray="1 2"/>
	<rect width="30mm" height="30mm" x="100mm" y="40mm" fill-opacity="0" stroke-width="0.2mm" stroke="black" stroke-dasharray="1 2"/>
	<rect width="30mm" height="30mm" x="130mm" y="40mm" fill-opacity="0" stroke-width="0.2mm" stroke="black" stroke-dasharray="1 2"/>
	<rect width="30mm" height="30mm" x="10mm" y="70mm" fill-opacity="0" stroke-width="0.2mm" stroke="black" stroke-dasharray="1 2"/>
	<rect width="30mm" height="30mm" x="40mm" y="70mm" fill-opacity="0" stroke-width="0.2mm" stroke="black" stroke-dasharray="1 2"/>
	<rect width="30mm" height="30mm" x="70mm" y="70mm" fill-opacity="0" stroke-width="0.2mm" stroke="black" stroke-dasharray="1 2"/>
	<rect width="30mm" height="30mm" x="100mm" y="70mm" fill-opacity="0" stroke-width="0.2mm" stroke="black" stroke-dasharray="1 2"/>
	<rect width="30mm" height="30mm" x="130mm" y="70mm" fill-opacity="0" stroke-width="0.2mm" stroke="black" stroke-dasharray="1 2"/>
	<rect width="30mm" height="30mm" x="10mm" y="100mm" fill-opacity="0" stroke-width="0.2mm" stroke="black" stroke-dasharray="1 2"/>
	<rect width="30mm" height="30mm" x="40mm" y="100mm" fill-opacity="0" stroke-width="0.2mm" stroke="black" stroke-dasharray="1 2"/>
	<rect width="30mm" height="30mm" x="70mm" y="100mm" fill-opacity="0" stroke-width="0.2mm" stroke="black" stroke-dasharray="1 2"/>
	<rect width="30mm" height="30mm" x="100mm" y="100mm" fill-opacity="0" stroke-width="0.2mm" stroke="black" stroke-dasharray="1 2"/>
	<rect width="30mm" height="30mm" x="130mm" y="100mm" fill-opacity="0" stroke-width="0.2mm" stroke="black" stroke-dasharray="1 2"/>
	<image x="11mm" y="11mm" width="28mm" height="28mm" href="tags/tag_10.png" />
	<image x="41mm" y="11mm" width="28mm" height="28mm" href="tags/tag_11.png" />
	<image x="71mm" y="11mm" width="28mm" height="28mm" href="tags/tag_12.png" />
	<image x="101mm" y="11mm" width="28mm" height="28mm" href="tags/tag_13.png" />
	<image x="131mm" y="11mm" width="28mm" height="28mm" href="tags/tag_14.png" />
	<image x="11mm" y="41mm" width="28mm" height="28mm" href="tags/tag_15.png" />
	<image x="41mm" y="41mm" width="28mm" height="28mm" href="tags/tag_16.png" />
	<image x="71mm" y="41mm" width="28mm" height="28mm" href="tags/tag_17.png" />
	<image x="101mm" y="41mm" width="28mm" height="28mm" href="tags/tag_18.png" />
	<image x="131mm" y="41mm" width="28mm" height="28mm" href="tags/tag_19.png" />
	<image x="11mm" y="71mm" width="28mm" height="28mm" href="tags/tag_20.png" />
	<image x="41mm" y="71mm" width="28mm" height="28mm" href="tags/tag_21.png" />
	<image x="71mm" y="71mm" width="28mm" height="28mm" href="tags/tag_22.png" />
	<image x="101mm" y="71mm" width="28mm" height="28mm" href="tags/tag_23.png" />
	<image x="131mm" y="71mm" width="28mm" height="28mm" href="tags/tag_24.png" />
	<image x="11mm" y="101mm" width="28mm" height="28mm" href="tags/tag_25.png" />
	<image x="41mm" y="101mm" width="28mm" height="28mm" href="tags/tag_26.png" />
	<image x="71mm" y="101mm" width="28mm" height="28mm" href="tags/tag_27.png" />
	<image x="101mm" y="101mm" width="28mm" height="28mm" href="tags/tag_28.png" />
	<image x="131mm" y="101mm" width="28mm" height="28mm" href="tags/tag_29.png" />
</svg>